<svg xmlns="http://www.w3.org/2000/svg" viewBox="0 0 1920 1080" preserveAspectRatio="xMidYMax slice">
  <defs>
    <linearGradient id="skyGrad" x1="0" y1="0" x2="0" y2="1">
      <stop offset="0%" stop-color="#0a0612"/>
      <stop offset="55%" stop-color="#1a0f2e"/>
      <stop offset="100%" stop-color="#2d1b4e"/>
    </linearGradient>
    <radialGradient id="moonGlow" cx="50%" cy="50%" r="50%">
      <stop offset="0%" stop-color="#c9b8ff" stop-opacity="0.25"/>
      <stop offset="60%" stop-color="#c9b8ff" stop-opacity="0.08"/>
      <stop offset="100%" stop-color="#c9b8ff" stop-opacity="0"/>
    </radialGradient>
  </defs>
  <rect width="1920" height="1080" fill="url(#skyGrad)"/>
  <!-- Moon atmospheric glow -->
  <circle cx="1450" cy="280" r="220" fill="url(#moonGlow)"/>
  <!-- Moon body -->
  <circle cx="1450" cy="280" r="70" fill="#c9b8ff"/>
  <!-- Stars -->
  <circle cx="85"   cy="62"  r="1.5" fill="#e8dcff" opacity="0.7"/>
  <circle cx="192"  cy="38"  r="1.0" fill="#e8dcff" opacity="0.5"/>
  <circle cx="310"  cy="95"  r="2.0" fill="#e8dcff" opacity="0.8"/>
  <circle cx="450"  cy="42"  r="1.5" fill="#e8dcff" opacity="0.6"/>
  <circle cx="580"  cy="78"  r="1.0" fill="#e8dcff" opacity="0.7"/>
  <circle cx="695"  cy="35"  r="2.0" fill="#e8dcff" opacity="0.9"/>
  <circle cx="820"  cy="90"  r="1.5" fill="#e8dcff" opacity="0.5"/>
  <circle cx="950"  cy="55"  r="1.0" fill="#e8dcff" opacity="0.8"/>
  <circle cx="1080" cy="75"  r="2.0" fill="#e8dcff" opacity="0.6"/>
  <circle cx="1200" cy="40"  r="1.5" fill="#e8dcff" opacity="0.7"/>
  <circle cx="1320" cy="60"  r="1.0" fill="#e8dcff" opacity="0.5"/>
  <circle cx="1560" cy="45"  r="2.0" fill="#e8dcff" opacity="0.9"/>
  <circle cx="1680" cy="85"  r="1.5" fill="#e8dcff" opacity="0.6"/>
  <circle cx="1810" cy="30"  r="1.0" fill="#e8dcff" opacity="0.8"/>
  <circle cx="130"  cy="180" r="2.0" fill="#e8dcff" opacity="0.7"/>
  <circle cx="260"  cy="160" r="1.0" fill="#e8dcff" opacity="0.6"/>
  <circle cx="420"  cy="200" r="1.5" fill="#e8dcff" opacity="0.8"/>
  <circle cx="560"  cy="145" r="2.0" fill="#e8dcff" opacity="0.5"/>
  <circle cx="710"  cy="190" r="1.0" fill="#e8dcff" opacity="0.9"/>
  <circle cx="840"  cy="155" r="1.5" fill="#e8dcff" opacity="0.7"/>
  <circle cx="990"  cy="175" r="2.0" fill="#e8dcff" opacity="0.6"/>
  <circle cx="1150" cy="140" r="1.0" fill="#e8dcff" opacity="0.8"/>
  <circle cx="1300" cy="170" r="1.5" fill="#e8dcff" opacity="0.5"/>
  <circle cx="1620" cy="155" r="2.0" fill="#e8dcff" opacity="0.7"/>
  <circle cx="1760" cy="180" r="1.0" fill="#e8dcff" opacity="0.6"/>
  <circle cx="70"   cy="300" r="1.5" fill="#e8dcff" opacity="0.8"/>
  <circle cx="250"  cy="270" r="2.0" fill="#e8dcff" opacity="0.7"/>
  <circle cx="400"  cy="320" r="1.0" fill="#e8dcff" opacity="0.5"/>
  <circle cx="610"  cy="280" r="1.5" fill="#e8dcff" opacity="0.9"/>
  <circle cx="780"  cy="310" r="2.0" fill="#e8dcff" opacity="0.6"/>
  <circle cx="920"  cy="265" r="1.0" fill="#e8dcff" opacity="0.8"/>
  <circle cx="1060" cy="340" r="1.5" fill="#e8dcff" opacity="0.7"/>
  <circle cx="1210" cy="295" r="2.0" fill="#e8dcff" opacity="0.5"/>
  <circle cx="1700" cy="305" r="2.0" fill="#e8dcff" opacity="0.8"/>
  <circle cx="1850" cy="280" r="1.0" fill="#e8dcff" opacity="0.7"/>
  <circle cx="160"  cy="450" r="1.5" fill="#e8dcff" opacity="0.6"/>
  <circle cx="380"  cy="420" r="2.0" fill="#e8dcff" opacity="0.7"/>
  <circle cx="600"  cy="460" r="1.0" fill="#e8dcff" opacity="0.8"/>
  <circle cx="850"  cy="430" r="1.5" fill="#e8dcff" opacity="0.5"/>
  <circle cx="1100" cy="450" r="2.0" fill="#e8dcff" opacity="0.7"/>
  <circle cx="1400" cy="440" r="1.0" fill="#e8dcff" opacity="0.6"/>
  <circle cx="1650" cy="410" r="1.5" fill="#e8dcff" opacity="0.9"/>
  <circle cx="1870" cy="390" r="1.0" fill="#e8dcff" opacity="0.6"/>
  <circle cx="35"   cy="520" r="1.5" fill="#e8dcff" opacity="0.5"/>
  <circle cx="490"  cy="540" r="1.0" fill="#e8dcff" opacity="0.7"/>
</svg>
