<svg xmlns="http://www.w3.org/2000/svg" viewBox="0 0 1920 1080" preserveAspectRatio="xMidYMax slice">
  <!-- Ground fill -->
  <rect x="0" y="1060" width="1920" height="20" fill="#08040f"/>
  <!-- Tree 1: cx=50, h=220, base half-width=63 -->
  <path fill="#08040f" d="M 50 860 L 78 939 L 64 919 L 95 999 L 76 975 L 113 1058 L 55 1058 L 55 1080 L 45 1080 L 45 1058 L -13 1058 L 24 975 L 5 999 L 36 919 L 22 939 Z"/>
  <!-- Tree 2: cx=140, h=310, base half-width=83 -->
  <path fill="#08040f" d="M 140 770 L 177 885 L 158 856 L 200 972 L 175 937 L 223 1058 L 147 1058 L 147 1080 L 133 1080 L 133 1058 L 57 1058 L 105 937 L 80 972 L 122 856 L 103 885 Z"/>
  <!-- Tree 3: cx=240, h=240, base half-width=65 -->
  <path fill="#08040f" d="M 240 840 L 269 927 L 254 905 L 287 993 L 267 966 L 305 1058 L 245 1058 L 245 1080 L 235 1080 L 235 1058 L 175 1058 L 213 966 L 193 993 L 226 905 L 211 927 Z"/>
  <!-- Tree 4: cx=340, h=285, base half-width=77 -->
  <path fill="#08040f" d="M 340 795 L 375 900 L 357 874 L 396 979 L 373 948 L 417 1058 L 346 1058 L 346 1080 L 334 1080 L 334 1058 L 263 1058 L 307 948 L 284 979 L 323 874 L 305 900 Z"/>
  <!-- Tree 5: cx=450, h=320, base half-width=90 -->
  <path fill="#08040f" d="M 450 760 L 491 879 L 469 849 L 515 969 L 488 933 L 540 1058 L 457 1058 L 457 1080 L 443 1080 L 443 1058 L 360 1058 L 412 933 L 385 969 L 431 849 L 410 879 Z"/>
  <!-- Tree 6: cx=560, h=230, base half-width=65 -->
  <path fill="#08040f" d="M 560 850 L 589 933 L 574 912 L 607 996 L 587 971 L 625 1058 L 565 1058 L 565 1080 L 555 1080 L 555 1058 L 495 1058 L 533 971 L 513 996 L 546 912 L 531 933 Z"/>
  <!-- Tree 7: cx=660, h=295, base half-width=79 -->
  <path fill="#08040f" d="M 660 785 L 696 894 L 677 867 L 717 976 L 693 943 L 739 1058 L 666 1058 L 666 1080 L 654 1080 L 654 1058 L 581 1058 L 627 943 L 603 976 L 643 867 L 624 894 Z"/>
  <!-- Tree 8: cx=770, h=195, base half-width=54 -->
  <path fill="#08040f" d="M 770 885 L 794 954 L 782 937 L 809 1006 L 793 985 L 824 1058 L 774 1058 L 774 1080 L 766 1080 L 766 1058 L 716 1058 L 747 985 L 731 1006 L 758 937 L 746 954 Z"/>
  <!-- Tree 9: cx=880, h=265, base half-width=72 -->
  <path fill="#08040f" d="M 880 815 L 912 912 L 896 888 L 932 985 L 910 956 L 952 1058 L 886 1058 L 886 1080 L 874 1080 L 874 1058 L 808 1058 L 850 956 L 828 985 L 864 888 L 848 912 Z"/>
  <!-- Tree 10: cx=1000, h=340, base half-width=94 -->
  <path fill="#08040f" d="M 1000 740 L 1042 867 L 1020 835 L 1067 963 L 1039 924 L 1094 1058 L 1007 1058 L 1007 1080 L 993 1080 L 993 1058 L 906 1058 L 961 924 L 933 963 L 980 835 L 958 867 Z"/>
  <!-- Tree 11: cx=1120, h=255, base half-width=68 -->
  <path fill="#08040f" d="M 1120 825 L 1151 918 L 1135 895 L 1169 988 L 1149 960 L 1188 1058 L 1125 1058 L 1125 1080 L 1115 1080 L 1115 1058 L 1052 1058 L 1091 960 L 1071 988 L 1105 895 L 1089 918 Z"/>
  <!-- Tree 12: cx=1250, h=300, base half-width=83 -->
  <path fill="#08040f" d="M 1250 780 L 1287 891 L 1268 863 L 1310 975 L 1285 941 L 1333 1058 L 1257 1058 L 1257 1080 L 1243 1080 L 1243 1058 L 1167 1058 L 1215 941 L 1190 975 L 1232 863 L 1213 891 Z"/>
  <!-- Tree 13: cx=1390, h=315, base half-width=86 -->
  <path fill="#08040f" d="M 1390 765 L 1429 882 L 1409 853 L 1452 970 L 1426 935 L 1476 1058 L 1397 1058 L 1397 1080 L 1383 1080 L 1383 1058 L 1304 1058 L 1354 935 L 1328 970 L 1371 853 L 1351 882 Z"/>
  <!-- Tree 14: cx=1520, h=235, base half-width=65 -->
  <path fill="#08040f" d="M 1520 845 L 1549 930 L 1534 909 L 1567 994 L 1547 969 L 1585 1058 L 1525 1058 L 1525 1080 L 1515 1080 L 1515 1058 L 1455 1058 L 1493 969 L 1473 994 L 1506 909 L 1491 930 Z"/>
  <!-- Tree 15: cx=1640, h=280, base half-width=76 -->
  <path fill="#08040f" d="M 1640 800 L 1674 903 L 1656 877 L 1694 981 L 1672 950 L 1716 1058 L 1646 1058 L 1646 1080 L 1634 1080 L 1634 1058 L 1564 1058 L 1608 950 L 1586 981 L 1624 877 L 1606 903 Z"/>
  <!-- Tree 16: cx=1780, h=305, base half-width=83 -->
  <path fill="#08040f" d="M 1780 775 L 1817 888 L 1798 860 L 1840 973 L 1815 939 L 1863 1058 L 1787 1058 L 1787 1080 L 1773 1080 L 1773 1058 L 1697 1058 L 1745 939 L 1720 973 L 1762 860 L 1743 888 Z"/>
  <!-- Tree 17: cx=1890, h=260, base half-width=72 -->
  <path fill="#08040f" d="M 1890 820 L 1922 915 L 1906 891 L 1942 987 L 1920 958 L 1962 1058 L 1896 1058 L 1896 1080 L 1884 1080 L 1884 1058 L 1818 1058 L 1860 958 L 1838 987 L 1874 891 L 1858 915 Z"/>
</svg>
