<svg xmlns="http://www.w3.org/2000/svg" viewBox="0 0 1920 1080" preserveAspectRatio="xMidYMax slice">
  <!-- Ground fill -->
  <rect x="0" y="1060" width="1920" height="20" fill="#08040f"/>
  <!-- Tree 1: cx=50, h=220, w=35 -->
  <path fill="#08040f" d="M 15 1080 L 50 860 L 85 1080 Z"/>
  <!-- Tree 2: cx=140, h=310, w=46 -->
  <path fill="#08040f" d="M 94 1080 L 140 770 L 186 1080 Z"/>
  <!-- Tree 3: cx=240, h=240, w=36 -->
  <path fill="#08040f" d="M 204 1080 L 240 840 L 276 1080 Z"/>
  <!-- Tree 4: cx=340, h=285, w=43 -->
  <path fill="#08040f" d="M 297 1080 L 340 795 L 383 1080 Z"/>
  <!-- Tree 5: cx=450, h=320, w=50 -->
  <path fill="#08040f" d="M 400 1080 L 450 760 L 500 1080 Z"/>
  <!-- Tree 6: cx=560, h=230, w=36 -->
  <path fill="#08040f" d="M 524 1080 L 560 850 L 596 1080 Z"/>
  <!-- Tree 7: cx=660, h=295, w=44 -->
  <path fill="#08040f" d="M 616 1080 L 660 785 L 704 1080 Z"/>
  <!-- Tree 8: cx=770, h=195, w=30 -->
  <path fill="#08040f" d="M 740 1080 L 770 885 L 800 1080 Z"/>
  <!-- Tree 9: cx=880, h=265, w=40 -->
  <path fill="#08040f" d="M 840 1080 L 880 815 L 920 1080 Z"/>
  <!-- Tree 10: cx=1000, h=340, w=52 -->
  <path fill="#08040f" d="M 948 1080 L 1000 740 L 1052 1080 Z"/>
  <!-- Tree 11: cx=1120, h=255, w=38 -->
  <path fill="#08040f" d="M 1082 1080 L 1120 825 L 1158 1080 Z"/>
  <!-- Tree 12: cx=1250, h=300, w=46 -->
  <path fill="#08040f" d="M 1204 1080 L 1250 780 L 1296 1080 Z"/>
  <!-- Tree 13: cx=1390, h=315, w=48 -->
  <path fill="#08040f" d="M 1342 1080 L 1390 765 L 1438 1080 Z"/>
  <!-- Tree 14: cx=1520, h=235, w=36 -->
  <path fill="#08040f" d="M 1484 1080 L 1520 845 L 1556 1080 Z"/>
  <!-- Tree 15: cx=1640, h=280, w=42 -->
  <path fill="#08040f" d="M 1598 1080 L 1640 800 L 1682 1080 Z"/>
  <!-- Tree 16: cx=1780, h=305, w=46 -->
  <path fill="#08040f" d="M 1734 1080 L 1780 775 L 1826 1080 Z"/>
  <!-- Tree 17: cx=1890, h=260, w=40 -->
  <path fill="#08040f" d="M 1850 1080 L 1890 820 L 1930 1080 Z"/>
</svg>
